<svg version="1.1" id="Layer_1" xmlns="http://www.w3.org/2000/svg" xmlns:xlink="http://www.w3.org/1999/xlink" x="0px" y="0px"
	 width="100%" viewBox="0 0 144 144" enable-background="new 0 0 144 144" xml:space="preserve">
<path fill="#AEFC30" opacity="1.000000" stroke="none" 
	d="
M93.000000,145.000000 
	C62.026493,145.000000 31.552986,145.000000 1.039739,145.000000 
	C1.039739,97.068214 1.039739,49.136387 1.039739,1.102280 
	C48.889927,1.102280 96.780144,1.102280 144.835175,1.102280 
	C144.835175,48.999535 144.835175,96.999725 144.835175,145.000000 
	C127.803436,145.000000 110.651718,145.000000 93.000000,145.000000 
M40.299339,72.371826 
	C40.592533,72.555565 40.885727,72.739304 41.088593,72.908844 
	C41.088593,72.908844 41.107937,72.819481 41.267174,73.489372 
	C42.215416,73.964935 43.163662,74.440498 44.036987,74.962357 
	C44.036987,74.962357 44.072586,74.881798 44.109829,75.286003 
	C44.473099,75.339668 44.836365,75.393333 45.707470,75.894753 
	C47.128860,76.937897 48.550251,77.981033 50.518162,79.426826 
	C51.397373,79.565262 52.276585,79.703697 53.084682,79.813499 
	C53.084682,79.813499 53.145107,79.766312 53.283932,80.449707 
	C58.268471,82.952866 63.253006,85.456032 67.370781,87.523918 
	C66.965294,88.824860 66.474152,90.400612 66.000748,91.999123 
	C66.000748,91.999123 66.023605,92.016724 65.979279,92.747673 
	C64.982132,94.151924 64.229721,96.438316 62.942085,96.795555 
	C59.026707,97.881844 55.078171,100.066956 50.746948,97.537643 
	C49.519440,96.820801 47.556431,97.363441 45.332508,97.264198 
	C44.937302,97.203384 44.542099,97.142570 43.475315,97.092743 
	C39.731289,97.732788 41.279930,100.386009 41.995113,102.034691 
	C42.982162,104.310081 44.877525,105.285461 47.826309,103.103012 
	C51.073215,103.696991 54.320118,104.290962 57.512257,105.709579 
	C56.813671,106.336143 56.212860,107.164688 55.401173,107.557610 
	C48.340733,110.975426 41.080891,110.953102 33.663170,108.804657 
	C32.650661,108.511398 31.407230,109.015427 30.270716,109.150299 
	C30.660728,109.924210 30.844927,111.006531 31.472099,111.425064 
	C39.037670,116.473785 56.859528,113.439636 63.803280,106.016655 
	C65.219032,104.747238 66.634781,103.477821 68.836067,102.108131 
	C69.577568,105.077637 70.239510,108.070694 71.107368,111.002800 
	C71.380226,111.924652 72.206009,112.682846 72.778717,113.515953 
	C73.347893,112.687218 74.355118,111.885414 74.408020,111.024948 
	C74.604286,107.832153 74.486237,104.620033 74.486237,100.531433 
	C76.767799,101.797844 77.846703,102.396706 79.089447,103.105103 
	C79.089447,103.105103 79.282478,103.065399 79.489693,103.274292 
	C79.632530,103.406227 79.778625,103.534454 79.971039,104.363884 
	C80.672501,104.949913 81.373962,105.535942 82.356552,106.716187 
	C85.236542,108.527260 88.116531,110.338341 91.449959,112.493462 
	C91.991005,112.645729 92.532059,112.797989 93.030174,112.975739 
	C93.030174,112.975739 93.055290,112.931084 93.555954,113.405579 
	C98.988792,118.107635 104.492798,116.115746 110.718475,114.784035 
	C116.801338,113.482864 117.790436,110.582001 117.570023,105.635193 
	C112.376831,105.900131 107.219917,106.163216 102.157677,106.421471 
	C103.227859,103.011406 104.031738,100.793472 104.454651,98.505135 
	C104.491875,98.303696 102.036430,97.641586 100.385399,97.271576 
	C100.385399,97.271576 100.024200,97.271469 99.551094,96.813416 
	C99.084442,96.698181 98.607819,96.452873 98.152687,96.487778 
	C93.491112,96.845360 88.834023,97.464081 84.173279,97.485306 
	C83.025070,97.490540 81.238907,95.787903 80.845200,94.527145 
	C80.003784,91.832680 79.881165,88.913742 79.512436,86.414398 
	C82.274971,85.633110 84.918831,84.985703 87.493706,84.130592 
	C90.408844,83.162460 93.319954,82.139122 96.127357,80.900734 
	C99.481331,79.421242 103.347076,78.339180 103.794594,73.781059 
	C103.794594,73.781059 103.680550,73.845200 104.186577,73.606560 
	C104.432579,73.331108 104.678574,73.055656 104.878517,72.860764 
	C104.878517,72.860764 104.801582,72.808868 105.641945,72.905319 
	C108.558235,73.370499 110.584373,72.524719 112.019646,69.653038 
	C112.921066,67.849487 114.858131,66.586090 116.193596,64.967361 
	C116.855934,64.164520 117.703934,63.057850 117.616409,62.172844 
	C117.246376,58.430916 116.926315,54.606812 115.830727,51.045723 
	C115.263809,49.203022 113.114319,47.847214 111.866280,45.990875 
	C111.866280,45.990875 111.700035,46.282658 111.833572,45.487549 
	C111.344772,44.164753 111.009834,42.755486 110.327515,41.541454 
	C109.509506,40.085987 108.395180,38.797066 107.409180,37.436024 
	C103.548759,33.721539 99.101448,35.670429 94.491302,37.230984 
	C92.960785,37.749069 89.917061,37.612129 89.412689,36.724659 
	C86.237495,31.137686 80.736649,29.461428 75.398033,27.219809 
	C66.809715,23.613684 60.679085,26.813652 59.005672,36.005943 
	C59.005672,36.005943 59.066235,36.017715 58.651257,36.271793 
	C58.391838,36.468906 58.161263,36.695381 57.478767,36.995968 
	C57.478767,36.995968 56.998001,37.040539 56.510693,37.054836 
	C56.510693,37.054836 56.024315,37.088135 55.341854,37.087158 
	C54.886879,37.086967 54.431908,37.086773 54.082043,36.469124 
	C54.351097,35.470860 54.620152,34.472599 54.889206,33.474335 
	C54.345253,33.336517 53.801304,33.198704 53.257355,33.060886 
	C52.841763,35.053635 52.426174,37.046383 51.444031,38.909676 
	C50.953506,38.612778 50.462982,38.315880 49.802372,37.406940 
	C48.769035,36.884354 47.735699,36.361771 46.702362,35.839184 
	C46.815998,36.562782 46.929634,37.286381 46.438278,38.425964 
	C44.642246,39.314335 42.846218,40.202705 41.029137,41.016159 
	C41.029137,41.016159 41.090450,41.064083 40.493195,41.117443 
	C39.994770,41.425774 39.496346,41.734104 38.998699,41.991142 
	C38.998699,41.991142 39.042854,42.017265 38.273277,41.988880 
	C36.706444,41.988880 35.139610,41.988880 33.317963,41.988880 
	C32.884212,44.659275 32.502087,47.011852 31.869503,49.803474 
	C31.560368,50.189476 31.251232,50.575481 30.594561,51.272915 
	C30.378433,51.501766 30.214327,51.763260 30.015987,52.803349 
	C30.401545,55.524380 30.787102,58.245415 31.092743,60.934189 
	C31.092743,60.934189 31.129251,60.856129 31.051996,61.650097 
	C31.333258,64.478027 31.425035,67.441887 35.254803,67.771790 
	C35.254803,67.771790 35.300953,67.620354 35.350712,68.087051 
	C35.652065,68.426483 35.953423,68.765923 36.660061,69.414055 
	C36.791637,69.521423 36.923214,69.628784 37.330383,70.342934 
	C38.239780,70.888519 39.149174,71.434113 40.002258,72.001831 
	C40.002258,72.001831 40.001884,71.941330 40.299339,72.371826 
M111.815445,35.325199 
	C111.984680,35.186646 112.153923,35.048092 112.323158,34.909538 
	C112.239960,34.818611 112.156769,34.727684 112.073578,34.636753 
	C111.922585,34.795616 111.771584,34.954479 111.815445,35.325199 
z"/>
<path fill="#145D07" opacity="1.000000" stroke="none" 
	d="
M37.054787,69.736145 
	C36.923214,69.628784 36.791637,69.521423 36.522167,69.015274 
	C36.023167,68.284439 35.662060,67.952393 35.300953,67.620354 
	C35.300953,67.620354 35.254803,67.771790 35.174309,67.404099 
	C33.772297,64.976318 32.450775,62.916222 31.129253,60.856129 
	C31.129251,60.856129 31.092743,60.934189 31.113180,60.500061 
	C31.111034,57.381039 31.088449,54.696144 31.095282,51.741692 
	C31.063829,51.301918 31.002962,51.131699 30.942095,50.961483 
	C31.251232,50.575481 31.560368,50.189476 32.279224,49.384346 
	C34.806915,46.649235 36.924885,44.333252 39.042854,42.017265 
	C39.042854,42.017265 38.998699,41.991142 39.300869,41.990032 
	C40.098843,41.680641 40.594646,41.372360 41.090446,41.064079 
	C41.090450,41.064083 41.029137,41.016159 41.441975,41.025528 
	C46.756710,41.034893 51.658604,41.034893 57.259575,41.034893 
	C57.427441,40.595131 58.118484,38.784794 58.894337,36.740807 
	C58.979145,36.507156 59.066235,36.017715 59.066235,36.017715 
	C59.066235,36.017715 59.005672,36.005943 59.327675,35.871391 
	C63.534065,31.408854 68.460747,29.010891 74.159767,29.961588 
	C81.624588,31.206856 87.167946,35.445431 89.323608,41.763771 
	C93.430908,41.184402 97.230637,39.667446 100.487259,40.439983 
	C104.463120,41.383133 107.982971,44.248558 111.700035,46.282658 
	C111.700035,46.282658 111.866280,45.990875 111.886398,46.475384 
	C116.957870,55.761940 116.041992,62.048420 108.694633,69.050751 
	C107.388985,70.295097 106.098869,71.555748 104.801582,72.808868 
	C104.801582,72.808868 104.878517,72.860764 104.613991,72.889755 
	C104.126488,73.227554 103.903519,73.536377 103.680550,73.845200 
	C103.680550,73.845200 103.794594,73.781059 103.425156,73.823929 
	C87.866692,83.467949 71.942329,87.287514 54.600605,80.050911 
	C54.153683,79.864403 53.631950,79.857155 53.145107,79.766312 
	C53.145107,79.766312 53.084682,79.813499 52.886078,79.558586 
	C51.782192,79.210510 50.876919,79.117348 49.971642,79.024185 
	C48.550251,77.981033 47.128860,76.937897 45.306320,75.506004 
	C44.656784,74.935631 44.379257,74.857147 44.072586,74.881798 
	C44.072586,74.881798 44.036987,74.962357 43.911919,74.671875 
	C42.893879,73.860756 42.000908,73.340118 41.107937,72.819481 
	C41.107937,72.819481 41.088593,72.908844 41.021595,72.665695 
	C40.637028,72.262138 40.319458,72.101730 40.001884,71.941330 
	C40.001884,71.941330 40.002258,72.001831 39.873863,71.702484 
	C38.848572,70.847481 37.951679,70.291809 37.054787,69.736145 
M39.976768,67.026657 
	C39.976768,67.026657 40.025421,67.016220 40.299080,67.600014 
	C41.661674,68.566963 43.024269,69.533920 44.432819,70.712357 
	C44.432819,70.712357 44.649124,70.705154 44.976357,71.224731 
	C47.314404,72.498161 49.652454,73.771584 51.991814,74.990181 
	C51.991814,74.990181 51.943932,75.016930 52.336815,75.466629 
	C52.895447,75.642342 53.454075,75.818062 54.187248,76.191200 
	C54.187248,76.191200 54.449577,76.166199 55.057312,76.668602 
	C68.301727,82.200417 81.294121,81.783852 94.677231,74.913864 
	C96.150291,73.978714 97.623344,73.043571 99.746330,71.942734 
	C101.131721,70.606705 102.517120,69.270676 103.971375,67.975594 
	C103.971375,67.975594 103.941078,67.901428 104.450279,67.605110 
	C105.002167,67.077477 105.554047,66.549843 106.527092,65.905075 
	C106.527092,65.905075 106.914703,65.702942 107.442635,65.605545 
	C107.874901,65.074120 108.307167,64.542694 109.050919,63.763264 
	C109.050919,63.763264 109.198433,63.393440 109.782036,62.928764 
	C112.870567,58.084667 112.589813,53.431801 108.842522,48.529663 
	C108.669937,48.253731 108.425705,48.076584 107.844894,47.379677 
	C106.533592,46.570293 105.222298,45.760906 103.788368,44.789043 
	C103.788368,44.789043 103.599289,44.864445 103.048470,44.303833 
	C98.118790,42.227695 93.940567,43.626965 89.859093,47.716156 
	C88.352272,48.333763 86.845451,48.951374 85.540237,48.912693 
	C85.357643,46.990746 85.252480,45.057693 84.978699,43.148823 
	C83.946297,35.950455 76.512390,31.645168 68.932472,33.261631 
	C62.496418,34.634159 59.393642,42.449543 60.971191,49.495018 
	C59.660217,49.324646 58.349239,49.154270 56.743343,48.364502 
	C50.466785,42.227600 44.664780,41.638771 38.902805,46.553925 
	C33.117500,51.488976 32.448200,57.753601 37.006901,63.974689 
	C37.006901,63.974689 37.073036,63.969303 37.167271,64.477875 
	C37.451466,64.653297 37.735661,64.828720 38.204346,65.438843 
	C38.394035,65.704781 38.643665,65.889885 39.114704,66.479500 
	C39.401657,66.645302 39.688606,66.811104 39.976768,67.026657 
z"/>
<path fill="#A2F33F" opacity="1.000000" stroke="none" 
	d="
M53.214520,80.108009 
	C53.631950,79.857155 54.153683,79.864403 54.600605,80.050911 
	C71.942329,87.287514 87.866692,83.467949 103.388611,73.769669 
	C103.347076,78.339180 99.481331,79.421242 96.127357,80.900734 
	C93.319954,82.139122 90.408844,83.162460 87.493706,84.130592 
	C84.918831,84.985703 82.274971,85.633110 79.512436,86.414398 
	C79.881165,88.913742 80.003784,91.832680 80.845200,94.527145 
	C81.238907,95.787903 83.025070,97.490540 84.173279,97.485306 
	C88.834023,97.464081 93.491112,96.845360 98.152687,96.487778 
	C98.607819,96.452873 99.084442,96.698181 99.531624,97.281502 
	C96.005981,98.834526 92.499817,99.919464 88.588028,100.999634 
	C78.609779,101.416351 76.791985,92.848328 72.466866,86.777763 
	C70.402153,90.180092 69.146240,93.721870 66.684891,95.903900 
	C64.066910,98.224777 60.306946,99.257477 56.687008,100.725906 
	C52.862507,99.508934 49.396618,98.418694 45.930729,97.328461 
	C47.556431,97.363441 49.519440,96.820801 50.746948,97.537643 
	C55.078171,100.066956 59.026707,97.881844 62.942085,96.795555 
	C64.229721,96.438316 64.982132,94.151924 66.066666,92.342407 
	C66.154045,91.937149 66.155991,91.748215 66.155991,91.748215 
	C66.155991,91.748215 65.983009,91.976364 65.983009,91.976364 
	C66.474152,90.400612 66.965294,88.824860 67.370781,87.523918 
	C63.253006,85.456032 58.268471,82.952866 53.214520,80.108009 
z"/>
<path fill="#A0F539" opacity="1.000000" stroke="none" 
	d="
M100.738754,97.193443 
	C102.036430,97.641586 104.491875,98.303696 104.454651,98.505135 
	C104.031738,100.793472 103.227859,103.011406 102.157677,106.421471 
	C107.219917,106.163216 112.376831,105.900131 117.570023,105.635193 
	C117.790436,110.582001 116.801338,113.482864 110.718475,114.784035 
	C104.492798,116.115746 98.988792,118.107635 93.735237,113.179352 
	C101.248055,114.211502 108.433746,114.591751 114.695847,109.495163 
	C111.273521,109.371010 107.977882,109.996170 104.692848,110.672829 
	C98.053345,112.040436 92.761986,109.483665 88.400864,104.916687 
	C89.450745,104.492691 90.206680,104.186981 91.345734,103.868774 
	C94.393616,103.017044 97.056679,102.172363 99.723625,101.340096 
	C102.364433,100.515984 101.943474,98.953270 100.738754,97.193443 
z"/>
<path fill="#A2F33F" opacity="1.000000" stroke="none" 
	d="
M111.766800,45.885101 
	C107.982971,44.248558 104.463120,41.383133 100.487259,40.439983 
	C97.230637,39.667446 93.430908,41.184402 89.323608,41.763771 
	C87.167946,35.445431 81.624588,31.206856 74.159767,29.961588 
	C68.460747,29.010891 63.534065,31.408854 59.344940,35.896954 
	C60.679085,26.813652 66.809715,23.613684 75.398033,27.219809 
	C80.736649,29.461428 86.237495,31.137686 89.412689,36.724659 
	C89.917061,37.612129 92.960785,37.749069 94.491302,37.230984 
	C99.101448,35.670429 103.548759,33.721539 107.409180,37.436024 
	C108.395180,38.797066 109.509506,40.085987 110.327515,41.541454 
	C111.009834,42.755486 111.344772,44.164753 111.766800,45.885101 
M69.141747,27.511072 
	C69.141747,27.511072 68.885277,27.425022 68.885277,27.425022 
	C68.885277,27.425022 69.047745,27.618540 69.141747,27.511072 
z"/>
<path fill="#074F0E" opacity="1.000000" stroke="none" 
	d="
M90.962624,103.881264 
	C90.206680,104.186981 89.450745,104.492691 88.089401,104.859497 
	C86.280396,104.545715 85.076782,104.170837 84.973106,104.138542 
	C83.500259,105.146690 82.787842,105.634331 82.075424,106.121971 
	C81.373962,105.535942 80.672501,104.949913 79.884140,103.878464 
	C79.667603,103.218163 79.496017,103.108940 79.282478,103.065399 
	C79.282478,103.065399 79.089447,103.105103 78.926620,102.717216 
	C74.314011,96.620224 70.754295,96.580040 68.050537,102.208412 
	C66.634781,103.477821 65.219032,104.747238 63.212090,105.859665 
	C61.472271,105.079872 60.323643,104.457077 58.949532,103.661758 
	C58.164574,102.610374 57.605095,101.731506 57.045624,100.852646 
	C60.306946,99.257477 64.066910,98.224777 66.684891,95.903900 
	C69.146240,93.721870 70.402153,90.180092 72.466866,86.777763 
	C76.791985,92.848328 78.609779,101.416351 88.852234,101.158310 
	C90.002243,102.174927 90.482437,103.028091 90.962624,103.881264 
z"/>
<path fill="#1E6A08" opacity="1.000000" stroke="none" 
	d="
M59.175014,103.834274 
	C60.323643,104.457077 61.472271,105.079872 62.885235,105.908340 
	C56.859528,113.439636 39.037670,116.473785 31.472099,111.425064 
	C30.844927,111.006531 30.660728,109.924210 30.270716,109.150299 
	C31.407230,109.015427 32.650661,108.511398 33.663170,108.804657 
	C41.080891,110.953102 48.340733,110.975426 55.401173,107.557610 
	C56.212860,107.164688 56.813671,106.336143 57.777035,105.239990 
	C58.419544,104.458359 58.797279,104.146317 59.175014,103.834274 
z"/>
<path fill="#0A5404" opacity="1.000000" stroke="none" 
	d="
M82.215988,106.419083 
	C82.787842,105.634331 83.500259,105.146690 84.973106,104.138542 
	C85.076782,104.170837 86.280396,104.545715 87.795456,104.977768 
	C92.761986,109.483665 98.053345,112.040436 104.692848,110.672829 
	C107.977882,109.996170 111.273521,109.371010 114.695847,109.495163 
	C108.433746,114.591751 101.248055,114.211502 93.484909,112.942108 
	C93.055290,112.931084 93.030174,112.975739 92.896225,112.695206 
	C92.173683,112.326256 91.585098,112.237839 90.996513,112.149422 
	C88.116531,110.338341 85.236542,108.527260 82.215988,106.419083 
z"/>
<path fill="#1C6608" opacity="1.000000" stroke="none" 
	d="
M68.443298,102.158272 
	C70.754295,96.580040 74.314011,96.620224 78.844696,102.662445 
	C77.846703,102.396706 76.767799,101.797844 74.486237,100.531433 
	C74.486237,104.620033 74.604286,107.832153 74.408020,111.024948 
	C74.355118,111.885414 73.347893,112.687218 72.778717,113.515953 
	C72.206009,112.682846 71.380226,111.924652 71.107368,111.002800 
	C70.239510,108.070694 69.577568,105.077637 68.443298,102.158272 
z"/>
<path fill="#A2F33F" opacity="1.000000" stroke="none" 
	d="
M105.221764,72.857094 
	C106.098869,71.555748 107.388985,70.295097 108.694633,69.050751 
	C116.041992,62.048420 116.957870,55.761940 111.793175,46.615662 
	C113.114319,47.847214 115.263809,49.203022 115.830727,51.045723 
	C116.926315,54.606812 117.246376,58.430916 117.616409,62.172844 
	C117.703934,63.057850 116.855934,64.164520 116.193596,64.967361 
	C114.858131,66.586090 112.921066,67.849487 112.019646,69.653038 
	C110.584373,72.524719 108.558235,73.370499 105.221764,72.857094 
z"/>
<path fill="#266E08" opacity="1.000000" stroke="none" 
	d="
M58.949532,103.661758 
	C58.797279,104.146317 58.419544,104.458359 57.804420,104.827667 
	C54.320118,104.290962 51.073215,103.696991 47.132332,102.863663 
	C44.020672,101.460548 41.670967,100.268677 44.146893,97.081749 
	C44.542099,97.142570 44.937302,97.203384 45.631618,97.296326 
	C49.396618,98.418694 52.862507,99.508934 56.687004,100.725906 
	C57.605095,101.731506 58.164574,102.610374 58.949532,103.661758 
z"/>
<path fill="#9CEE43" opacity="1.000000" stroke="none" 
	d="
M58.809528,36.974453 
	C58.118484,38.784794 57.427441,40.595131 57.259575,41.034893 
	C51.658604,41.034893 46.756710,41.034893 41.452499,41.062988 
	C42.846218,40.202705 44.642246,39.314335 47.106365,38.218018 
	C48.507122,38.013046 49.239788,38.016018 49.972458,38.018986 
	C50.462982,38.315880 50.953506,38.612778 51.927711,39.018127 
	C52.933235,38.446579 53.455086,37.766582 53.976936,37.086582 
	C54.431908,37.086773 54.886879,37.086967 55.795029,37.171200 
	C56.248203,37.255241 56.653828,37.275040 56.653828,37.275040 
	C56.653828,37.275040 56.998001,37.040539 56.998001,37.040539 
	C56.998001,37.040539 57.478767,36.995968 57.931725,36.982719 
	C58.384678,36.969475 58.809528,36.974453 58.809528,36.974453 
z"/>
<path fill="#23690A" opacity="1.000000" stroke="none" 
	d="
M91.345734,103.868774 
	C90.482437,103.028091 90.002243,102.174927 89.257843,101.163086 
	C92.499817,99.919464 96.005981,98.834526 99.768173,97.510529 
	C100.024200,97.271469 100.385399,97.271576 100.562073,97.232513 
	C101.943474,98.953270 102.364433,100.515984 99.723625,101.340096 
	C97.056679,102.172363 94.393616,103.017044 91.345734,103.868774 
z"/>
<path fill="#9CEE43" opacity="1.000000" stroke="none" 
	d="
M38.658066,42.003075 
	C36.924885,44.333252 34.806915,46.649235 32.404449,49.164825 
	C32.502087,47.011852 32.884212,44.659275 33.317963,41.988880 
	C35.139610,41.988880 36.706444,41.988880 38.658066,42.003075 
z"/>
<path fill="#A2F33F" opacity="1.000000" stroke="none" 
	d="
M43.811104,97.087250 
	C41.670967,100.268677 44.020672,101.460548 46.739471,102.790802 
	C44.877525,105.285461 42.982162,104.310081 41.995113,102.034691 
	C41.279930,100.386009 39.731289,97.732788 43.811104,97.087250 
z"/>
<path fill="#A3F440" opacity="1.000000" stroke="none" 
	d="
M54.029488,36.777855 
	C53.455086,37.766582 52.933235,38.446579 52.210987,39.082855 
	C52.426174,37.046383 52.841763,35.053635 53.257355,33.060886 
	C53.801304,33.198704 54.345253,33.336517 54.889206,33.474335 
	C54.620152,34.472599 54.351097,35.470860 54.029488,36.777855 
z"/>
<path fill="#93E14B" opacity="1.000000" stroke="none" 
	d="
M31.090626,61.253113 
	C32.450775,62.916222 33.772297,64.976318 35.225380,67.343628 
	C31.425035,67.441887 31.333258,64.478027 31.090626,61.253113 
z"/>
<path fill="#93E14B" opacity="1.000000" stroke="none" 
	d="
M31.065868,52.011250 
	C31.088449,54.696144 31.111034,57.381039 31.153137,60.516190 
	C30.787102,58.245415 30.401545,55.524380 30.299381,52.416904 
	C30.582775,52.030460 31.065868,52.011250 31.065868,52.011250 
z"/>
<path fill="#A3F440" opacity="1.000000" stroke="none" 
	d="
M49.887413,37.712963 
	C49.239788,38.016018 48.507122,38.013046 47.408859,38.010025 
	C46.929634,37.286381 46.815998,36.562782 46.702362,35.839184 
	C47.735699,36.361771 48.769035,36.884354 49.887413,37.712963 
z"/>
<path fill="#93E14B" opacity="1.000000" stroke="none" 
	d="
M41.187553,73.154427 
	C42.000908,73.340118 42.893879,73.860756 43.949379,74.648720 
	C43.163662,74.440498 42.215416,73.964935 41.187553,73.154427 
z"/>
<path fill="#93E14B" opacity="1.000000" stroke="none" 
	d="
M37.192585,70.039536 
	C37.951679,70.291809 38.848572,70.847481 39.902016,71.691422 
	C39.149174,71.434113 38.239780,70.888519 37.192585,70.039536 
z"/>
<path fill="#A2F33F" opacity="1.000000" stroke="none" 
	d="
M111.718018,35.219269 
	C111.771584,34.954479 111.922585,34.795616 112.073578,34.636753 
	C112.156769,34.727684 112.239960,34.818611 112.323158,34.909538 
	C112.153923,35.048092 111.984680,35.186646 111.718018,35.219269 
z"/>
<path fill="#A2F33F" opacity="1.000000" stroke="none" 
	d="
M50.244904,79.225510 
	C50.876919,79.117348 51.782192,79.210510 52.921631,79.572906 
	C52.276585,79.703697 51.397373,79.565262 50.244904,79.225510 
z"/>
<path fill="#A0F539" opacity="1.000000" stroke="none" 
	d="
M91.223236,112.321442 
	C91.585098,112.237839 92.173683,112.326256 92.917686,112.682465 
	C92.532059,112.797989 91.991005,112.645729 91.223236,112.321442 
z"/>
<path fill="#93E14B" opacity="1.000000" stroke="none" 
	d="
M44.091209,75.083900 
	C44.379257,74.857147 44.656784,74.935631 45.052399,75.282127 
	C44.836365,75.393333 44.473099,75.339668 44.091209,75.083900 
z"/>
<path fill="#93E14B" opacity="1.000000" stroke="none" 
	d="
M35.325832,67.853699 
	C35.662060,67.952393 36.023167,68.284439 36.319527,68.860916 
	C35.953423,68.765923 35.652065,68.426483 35.325832,67.853699 
z"/>
<path fill="#9CEE43" opacity="1.000000" stroke="none" 
	d="
M40.791821,41.090759 
	C40.594646,41.372360 40.098843,41.680641 39.300480,42.015678 
	C39.496346,41.734104 39.994770,41.425774 40.791821,41.090759 
z"/>
<path fill="#A2F33F" opacity="1.000000" stroke="none" 
	d="
M103.933563,73.725876 
	C103.903519,73.536377 104.126488,73.227554 104.637024,72.849472 
	C104.678574,73.055656 104.432579,73.331108 103.933563,73.725876 
z"/>
<path fill="#93E14B" opacity="1.000000" stroke="none" 
	d="
M40.150612,72.156578 
	C40.319458,72.101730 40.637028,72.262138 41.066757,72.672791 
	C40.885727,72.739304 40.592533,72.555565 40.150612,72.156578 
z"/>
<path fill="#1C6608" opacity="1.000000" stroke="none" 
	d="
M79.386086,103.169846 
	C79.496017,103.108940 79.667603,103.218163 79.862595,103.526016 
	C79.778625,103.534454 79.632530,103.406227 79.386086,103.169846 
z"/>
<path fill="#9CEE43" opacity="1.000000" stroke="none" 
	d="
M31.095284,51.741692 
	C31.065868,52.011250 30.582775,52.030460 30.342508,52.043930 
	C30.214327,51.763260 30.378433,51.501766 30.768328,51.117199 
	C31.002962,51.131699 31.063829,51.301918 31.095284,51.741692 
z"/>
<path fill="#A3F440" opacity="1.000000" stroke="none" 
	d="
M56.754349,37.047688 
	C56.998001,37.040539 56.653828,37.275040 56.653828,37.275040 
	C56.653828,37.275040 56.248203,37.255241 56.136261,37.171688 
	C56.024315,37.088135 56.510693,37.054836 56.754349,37.047688 
z"/>
<path fill="#A2F33F" opacity="1.000000" stroke="none" 
	d="
M58.894337,36.740807 
	C58.809528,36.974453 58.384678,36.969475 58.172100,36.960346 
	C58.161263,36.695381 58.391838,36.468906 58.858746,36.144753 
	C59.066235,36.017715 58.979145,36.507156 58.894337,36.740807 
z"/>
<path fill="#ADFC31" opacity="1.000000" stroke="none" 
	d="
M38.953243,65.994141 
	C38.643665,65.889885 38.394035,65.704781 37.989231,65.018814 
	C37.580357,64.344482 37.346661,64.134651 37.073036,63.969303 
	C37.073036,63.969303 37.006901,63.974689 37.025936,63.547737 
	C37.364006,59.375187 37.446014,55.590012 38.063000,51.894150 
	C38.808586,47.427975 46.664516,44.434231 50.417885,46.814571 
	C52.467827,48.114616 54.798931,48.971313 57.068653,50.369865 
	C57.592110,52.060978 58.050144,53.410179 58.297401,54.138496 
	C56.969379,56.083740 55.975563,57.539448 54.730423,58.852558 
	C51.693111,58.660942 51.693111,58.660942 52.544750,63.731743 
	C51.285412,64.918571 50.123295,66.013779 48.634186,67.208221 
	C47.087841,68.440033 45.868484,69.572594 44.649124,70.705154 
	C44.649124,70.705154 44.432819,70.712357 44.478340,70.245674 
	C43.024376,68.858070 41.524899,67.937149 40.025421,67.016220 
	C40.025421,67.016220 39.976768,67.026657 39.850319,66.795731 
	C39.515759,66.308739 39.258884,66.118515 38.953243,65.994141 
z"/>
<path fill="#A8F82D" opacity="1.000000" stroke="none" 
	d="
M103.599289,44.864445 
	C103.599289,44.864445 103.788368,44.789043 103.910660,45.240753 
	C105.391914,46.461048 106.750870,47.229633 108.109825,47.998215 
	C108.425705,48.076584 108.669937,48.253731 108.911057,49.214615 
	C108.950172,53.921993 108.920761,57.944420 108.657722,61.714417 
	C107.073135,58.546829 105.722183,55.631672 104.375504,52.725742 
	C102.754036,53.014824 101.246490,53.283596 98.779633,53.723396 
	C99.579979,51.260674 100.117767,49.605862 101.083931,46.632919 
	C99.098824,47.669746 97.429337,48.049419 97.332451,48.673313 
	C96.761826,52.347698 91.957794,55.658821 96.196022,59.787979 
	C95.770073,60.202244 95.344131,60.616512 94.635956,60.846764 
	C87.671211,55.205830 83.390137,54.795593 76.758026,58.814827 
	C74.685562,56.552139 72.900047,54.478756 70.520927,51.716057 
	C74.749229,51.422573 77.877693,51.205429 81.296280,51.086067 
	C82.837143,50.645565 84.087891,50.107277 85.338638,49.568985 
	C86.845451,48.951374 88.352272,48.333763 90.413445,47.351807 
	C95.178291,46.279785 99.388794,45.572113 103.599289,44.864445 
z"/>
<path fill="#ADFB37" opacity="1.000000" stroke="none" 
	d="
M81.006157,50.988281 
	C77.877693,51.205429 74.749229,51.422573 70.520927,51.716057 
	C72.900047,54.478756 74.685562,56.552139 76.749420,59.065956 
	C77.021622,59.673775 77.015480,59.841156 76.765984,60.155655 
	C75.996498,60.837940 75.470375,61.373108 74.576111,61.927898 
	C72.104919,60.997860 70.001862,60.048199 67.572014,59.061489 
	C66.817680,59.095654 66.390137,59.166862 65.579437,59.161591 
	C61.883381,58.574707 58.251770,56.540527 55.787933,60.799862 
	C55.390541,60.056530 55.186146,59.525841 54.981750,58.995155 
	C55.975563,57.539448 56.969379,56.083740 58.297401,54.138496 
	C58.050144,53.410179 57.592110,52.060978 57.079536,50.108765 
	C57.029419,49.331795 57.033844,49.157845 57.038265,48.983894 
	C58.349239,49.154270 59.660217,49.324646 61.256935,49.170853 
	C62.026367,48.238857 62.510056,47.631027 63.462353,47.015007 
	C69.621758,47.004505 75.312561,47.002186 81.002594,47.398903 
	C81.003273,48.861389 81.004715,49.924835 81.006157,50.988281 
z"/>
<path fill="#AAF933" opacity="1.000000" stroke="none" 
	d="
M94.918182,61.030777 
	C95.344131,60.616512 95.770073,60.202244 96.196022,59.787979 
	C91.957794,55.658821 96.761826,52.347698 97.332451,48.673313 
	C97.429337,48.049419 99.098824,47.669746 101.083931,46.632919 
	C100.117767,49.605862 99.579979,51.260674 98.779633,53.723396 
	C101.246490,53.283596 102.754036,53.014824 104.375504,52.725742 
	C105.722183,55.631672 107.073135,58.546829 108.732742,62.071724 
	C109.093750,62.918789 109.146095,63.156116 109.198433,63.393440 
	C109.198433,63.393440 109.050919,63.763264 108.641129,63.955917 
	C107.792465,64.666695 107.353584,65.184822 106.914703,65.702942 
	C106.914703,65.702942 106.527092,65.905075 106.017464,66.038910 
	C104.985580,66.748978 104.463333,67.325203 103.941078,67.901428 
	C103.941078,67.901428 103.971375,67.975594 103.632095,67.907852 
	C102.198387,68.228767 101.103973,68.617432 99.700600,68.912056 
	C98.265213,67.552628 97.138786,66.287231 95.943871,64.683357 
	C95.556320,63.240173 95.237251,62.135475 94.918182,61.030777 
z"/>
<path fill="#A6F829" opacity="1.000000" stroke="none" 
	d="
M54.730419,58.852554 
	C55.186146,59.525841 55.390541,60.056530 56.192127,60.831535 
	C57.870693,61.055489 58.952076,61.035130 59.996033,61.395988 
	C60.318653,63.248657 60.678699,64.720100 61.034431,66.572342 
	C60.308369,71.579697 65.089241,70.843666 67.161362,73.138718 
	C67.970055,73.821220 68.530312,74.354576 68.981674,75.213577 
	C67.926033,76.041779 66.979279,76.544342 65.753876,76.815414 
	C62.981312,76.384781 60.487377,76.185646 57.746376,75.984871 
	C57.499310,75.983231 57.005234,75.974579 56.895447,75.878334 
	C56.495007,75.651596 56.237064,75.707779 55.620739,76.000664 
	C54.969616,76.089203 54.709595,76.127701 54.449577,76.166199 
	C54.449577,76.166199 54.187248,76.191200 53.888641,75.886955 
	C53.041336,75.394119 52.492634,75.205521 51.943932,75.016930 
	C51.943932,75.016930 51.991814,74.990181 51.989388,74.637444 
	C50.978363,71.892799 49.969769,69.500893 48.961174,67.108986 
	C50.123295,66.013779 51.285412,64.918571 52.544750,63.731743 
	C51.693111,58.660942 51.693111,58.660942 54.730419,58.852554 
z"/>
<path fill="#A8F839" opacity="1.000000" stroke="none" 
	d="
M81.296280,51.086067 
	C81.004715,49.924835 81.003273,48.861389 81.336655,47.372742 
	C85.243958,45.899464 83.719002,44.430908 81.914139,42.607140 
	C79.566292,38.012703 75.417976,40.531338 72.336006,39.498417 
	C68.065063,38.067020 66.047844,40.086815 63.739883,43.151672 
	C63.315823,44.559772 63.154785,45.791485 62.993744,47.023193 
	C62.510056,47.631027 62.026367,48.238857 61.249542,48.935455 
	C59.393642,42.449543 62.496418,34.634159 68.932472,33.261631 
	C76.512390,31.645168 83.946297,35.950455 84.978699,43.148823 
	C85.252480,45.057693 85.357643,46.990746 85.439438,49.240837 
	C84.087891,50.107277 82.837143,50.645565 81.296280,51.086067 
z"/>
<path fill="#9CEC45" opacity="1.000000" stroke="none" 
	d="
M56.890804,48.674198 
	C57.033844,49.157845 57.029419,49.331795 57.014114,49.766846 
	C54.798931,48.971313 52.467827,48.114616 50.417885,46.814571 
	C46.664516,44.434231 38.808586,47.427975 38.063000,51.894150 
	C37.446014,55.590012 37.364006,59.375187 37.046104,63.521397 
	C32.448200,57.753601 33.117500,51.488976 38.902805,46.553925 
	C44.664780,41.638771 50.466785,42.227600 56.890804,48.674198 
z"/>
<path fill="#9CEC45" opacity="1.000000" stroke="none" 
	d="
M57.005234,75.974579 
	C57.005234,75.974579 57.499310,75.983231 58.114799,76.015839 
	C61.164368,76.381271 63.598442,76.714096 66.032516,77.046921 
	C66.979279,76.544342 67.926033,76.041779 69.332466,75.234940 
	C72.140999,74.862778 74.489861,74.794899 76.645630,75.015968 
	C74.667114,76.151764 72.881676,76.998596 70.020363,78.355736 
	C72.185669,78.584473 73.163078,78.913368 74.045624,78.744987 
	C80.649788,77.484993 87.235207,76.126740 93.874184,74.853989 
	C93.921875,74.908707 94.017502,75.017921 94.017502,75.017921 
	C81.294121,81.783852 68.301727,82.200417 54.753445,76.417404 
	C54.709595,76.127701 54.969616,76.089203 55.868828,76.011307 
	C56.508018,75.971916 57.005234,75.974579 57.005234,75.974579 
z"/>
<path fill="#9CEC45" opacity="1.000000" stroke="none" 
	d="
M109.490234,63.161102 
	C109.146095,63.156116 109.093750,62.918789 108.966370,62.324150 
	C108.920761,57.944420 108.950172,53.921993 108.984604,49.433453 
	C112.589813,53.431801 112.870567,58.084667 109.490234,63.161102 
z"/>
<path fill="#9CEC45" opacity="1.000000" stroke="none" 
	d="
M48.634186,67.208221 
	C49.969769,69.500893 50.978363,71.892799 51.988731,74.664856 
	C49.652454,73.771584 47.314404,72.498161 44.812740,70.964943 
	C45.868484,69.572594 47.087841,68.440033 48.634186,67.208221 
z"/>
<path fill="#9CEC45" opacity="1.000000" stroke="none" 
	d="
M103.323883,44.584137 
	C99.388794,45.572113 95.178291,46.279785 90.587158,47.033981 
	C93.940567,43.626965 98.118790,42.227695 103.323883,44.584137 
z"/>
<path fill="#9CEC45" opacity="1.000000" stroke="none" 
	d="
M100.009552,69.006096 
	C101.103973,68.617432 102.198387,68.228767 103.597656,67.887375 
	C102.517120,69.270676 101.131721,70.606705 99.357361,71.955124 
	C98.968391,71.967514 98.840080,71.826889 98.937752,71.539543 
	C99.360130,70.503494 99.684837,69.754791 100.009552,69.006096 
z"/>
<path fill="#9CEC45" opacity="1.000000" stroke="none" 
	d="
M40.162251,67.308121 
	C41.524899,67.937149 43.024376,68.858070 44.455360,70.139931 
	C43.024269,69.533920 41.661674,68.566963 40.162251,67.308121 
z"/>
<path fill="#9CEC45" opacity="1.000000" stroke="none" 
	d="
M107.977356,47.688946 
	C106.750870,47.229633 105.391914,46.461048 103.971977,45.321991 
	C105.222298,45.760906 106.533592,46.570293 107.977356,47.688946 
z"/>
<path fill="#9CEC45" opacity="1.000000" stroke="none" 
	d="
M99.032394,72.037971 
	C97.623344,73.043571 96.150291,73.978714 94.347366,74.965897 
	C94.017502,75.017921 93.921875,74.908707 94.014084,74.540604 
	C95.684227,73.390625 97.262154,72.608757 98.840080,71.826889 
	C98.840080,71.826889 98.968391,71.967514 99.032394,72.037971 
z"/>
<path fill="#9CEC45" opacity="1.000000" stroke="none" 
	d="
M107.178665,65.654243 
	C107.353584,65.184822 107.792465,64.666695 108.485382,64.079926 
	C108.307167,64.542694 107.874901,65.074120 107.178665,65.654243 
z"/>
<path fill="#9CEC45" opacity="1.000000" stroke="none" 
	d="
M104.195679,67.753265 
	C104.463333,67.325203 104.985580,66.748978 105.806885,66.097481 
	C105.554047,66.549843 105.002167,67.077477 104.195679,67.753265 
z"/>
<path fill="#9CEC45" opacity="1.000000" stroke="none" 
	d="
M52.140373,75.241776 
	C52.492634,75.205521 53.041336,75.394119 53.801373,75.788239 
	C53.454075,75.818062 52.895447,75.642342 52.140373,75.241776 
z"/>
<path fill="#9CEC45" opacity="1.000000" stroke="none" 
	d="
M39.033974,66.236816 
	C39.258884,66.118515 39.515759,66.308739 39.849712,66.770851 
	C39.688606,66.811104 39.401657,66.645302 39.033974,66.236816 
z"/>
<path fill="#9CEC45" opacity="1.000000" stroke="none" 
	d="
M37.120155,64.223587 
	C37.346661,64.134651 37.580357,64.344482 37.896988,64.801468 
	C37.735661,64.828720 37.451466,64.653297 37.120155,64.223587 
z"/>
<path fill="#AEFC30" opacity="1.000000" stroke="none" 
	d="
M65.991882,91.987747 
	C65.983009,91.976364 66.155991,91.748215 66.155991,91.748215 
	C66.155991,91.748215 66.154045,91.937149 66.088821,91.976936 
	C66.023605,92.016724 66.000748,91.999123 65.991882,91.987747 
z"/>
<path fill="#AEFC30" opacity="1.000000" stroke="none" 
	d="
M69.094742,27.564806 
	C69.047745,27.618540 68.885277,27.425022 68.885277,27.425022 
	C68.885277,27.425022 69.141747,27.511072 69.094742,27.564806 
z"/>
<path fill="#9CEA4B" opacity="1.000000" stroke="none" 
	d="
M94.635956,60.846764 
	C95.237251,62.135475 95.556320,63.240173 95.748932,64.855080 
	C95.315765,65.523918 95.009064,65.682549 94.562614,65.547943 
	C91.076630,57.812912 86.161232,56.436008 77.398499,60.393784 
	C77.268753,60.265400 77.009346,60.008537 77.009346,60.008537 
	C77.015480,59.841156 77.021622,59.673775 77.036377,59.255264 
	C83.390137,54.795593 87.671211,55.205830 94.635956,60.846764 
z"/>
<path fill="#A1F142" opacity="1.000000" stroke="none" 
	d="
M66.912926,72.989571 
	C65.089241,70.843666 60.308369,71.579697 61.429985,66.547401 
	C64.282799,65.298225 66.735741,64.454796 68.985191,63.681324 
	C68.544228,61.821163 68.221512,60.459850 67.898804,59.098534 
	C70.001862,60.048199 72.104919,60.997860 74.626541,61.975376 
	C75.045097,62.003227 75.153290,62.089737 75.132339,62.443691 
	C74.766357,64.118065 74.421326,65.438492 73.998505,67.109848 
	C73.287216,69.227722 72.653717,70.994659 71.682053,72.767075 
	C69.879677,73.105797 68.191902,68.874229 66.912926,72.989571 
z"/>
<path fill="#ADFE27" opacity="1.000000" stroke="none" 
	d="
M82.001511,42.946472 
	C83.719002,44.430908 85.243958,45.899464 81.337418,46.973701 
	C75.312561,47.002186 69.621758,47.004505 63.462357,47.015007 
	C63.154785,45.791485 63.315823,44.559772 64.207336,43.157829 
	C70.625710,42.973888 76.313614,42.960178 82.001511,42.946472 
z"/>
<path fill="#034C0C" opacity="1.000000" stroke="none" 
	d="
M67.572014,59.061489 
	C68.221512,60.459850 68.544228,61.821163 68.985191,63.681324 
	C66.735741,64.454796 64.282799,65.298225 61.434303,66.166603 
	C60.678699,64.720100 60.318653,63.248657 60.189819,61.551193 
	C62.268219,60.629471 64.115402,59.933769 65.962593,59.238068 
	C66.390137,59.166862 66.817680,59.095654 67.572014,59.061489 
z"/>
<path fill="#216D0A" opacity="1.000000" stroke="none" 
	d="
M65.579437,59.161587 
	C64.115402,59.933769 62.268219,60.629471 60.227242,61.169968 
	C58.952076,61.035130 57.870693,61.055489 56.385120,61.044178 
	C58.251770,56.540527 61.883381,58.574707 65.579437,59.161587 
z"/>
<path fill="#9CEA4B" opacity="1.000000" stroke="none" 
	d="
M74.994675,61.955750 
	C75.470375,61.373108 75.996498,60.837940 76.765984,60.155655 
	C77.009346,60.008537 77.268753,60.265400 77.237686,60.650719 
	C76.522171,61.387268 75.837730,61.738503 75.153290,62.089737 
	C75.153290,62.089737 75.045097,62.003227 74.994675,61.955750 
z"/>
<path fill="#A7F931" opacity="1.000000" stroke="none" 
	d="
M72.020218,72.761597 
	C72.653717,70.994659 73.287216,69.227722 74.243690,67.179367 
	C74.725967,66.956528 74.885277,67.015129 75.222839,67.220963 
	C75.924774,67.202644 76.448463,67.037109 76.962540,66.907799 
	C76.952927,66.944023 76.881317,66.921913 77.225960,66.914276 
	C79.742020,66.165840 81.546196,63.078236 84.590500,65.990440 
	C87.012833,65.935059 89.113281,65.747734 90.950127,65.583923 
	C92.353073,65.680107 93.527710,65.760643 94.702354,65.841179 
	C95.009064,65.682549 95.315765,65.523918 95.817413,65.193565 
	C97.138786,66.287231 98.265213,67.552628 99.700592,68.912056 
	C99.684837,69.754791 99.360130,70.503494 98.937752,71.539543 
	C97.262154,72.608757 95.684227,73.390625 93.966400,74.485878 
	C87.235207,76.126740 80.649788,77.484993 74.045624,78.744987 
	C73.163078,78.913368 72.185669,78.584473 70.020363,78.355736 
	C72.881676,76.998596 74.667114,76.151764 76.821381,74.759354 
	C77.779892,73.214012 78.369553,72.214233 78.835800,70.946930 
	C77.155716,71.148849 75.599052,71.618286 73.887657,72.344086 
	C73.162018,72.654160 72.591118,72.707878 72.020218,72.761597 
z"/>
<path fill="#226705" opacity="1.000000" stroke="none" 
	d="
M78.959221,71.214462 
	C78.369553,72.214233 77.779892,73.214012 77.014473,74.470398 
	C74.489861,74.794899 72.140999,74.862778 69.441345,74.909302 
	C68.530312,74.354576 67.970055,73.821220 67.161362,73.138718 
	C68.191902,68.874229 69.879677,73.105797 71.682053,72.767075 
	C72.591118,72.707878 73.162018,72.654160 74.252335,72.339340 
	C76.167580,71.790306 77.563400,71.502380 78.959221,71.214462 
z"/>
<path fill="#A7F931" opacity="1.000000" stroke="none" 
	d="
M65.753876,76.815422 
	C63.598442,76.714096 61.164368,76.381271 58.361870,76.017479 
	C60.487377,76.185646 62.981312,76.384781 65.753876,76.815422 
z"/>
<path fill="#A7F931" opacity="1.000000" stroke="none" 
	d="
M56.895447,75.878334 
	C57.005234,75.974579 56.508018,75.971916 56.259926,75.961273 
	C56.237064,75.707779 56.495007,75.651596 56.895447,75.878334 
z"/>
<path fill="#ADFB37" opacity="1.000000" stroke="none" 
	d="
M81.914139,42.607140 
	C76.313614,42.960178 70.625710,42.973888 64.470352,42.981441 
	C66.047844,40.086815 68.065063,38.067020 72.336006,39.498417 
	C75.417976,40.531338 79.566292,38.012703 81.914139,42.607140 
z"/>
<path fill="#1D6808" opacity="1.000000" stroke="none" 
	d="
M94.562614,65.547943 
	C93.527710,65.760643 92.353073,65.680107 90.950127,65.583923 
	C89.113281,65.747734 87.012833,65.935059 84.519218,65.592804 
	C83.594009,64.044342 83.123596,62.220127 82.517151,62.173729 
	C81.243004,62.076237 79.644402,62.614117 78.655228,63.452843 
	C77.740837,64.228165 77.447929,65.736443 76.881317,66.921913 
	C76.881317,66.921913 76.952927,66.944023 76.638458,66.923782 
	C75.897530,66.960281 75.471062,67.017014 75.044594,67.073738 
	C74.885277,67.015129 74.725967,66.956528 74.321472,66.828423 
	C74.421326,65.438492 74.766357,64.118065 75.132339,62.443695 
	C75.837730,61.738503 76.522171,61.387268 77.367432,60.779099 
	C86.161232,56.436008 91.076630,57.812912 94.562614,65.547943 
z"/>
<path fill="#A1F142" opacity="1.000000" stroke="none" 
	d="
M77.225960,66.914276 
	C77.447929,65.736443 77.740837,64.228165 78.655228,63.452843 
	C79.644402,62.614117 81.243004,62.076237 82.517151,62.173729 
	C83.123596,62.220127 83.594009,64.044342 84.197327,65.460861 
	C81.546196,63.078236 79.742020,66.165840 77.225960,66.914276 
z"/>
<path fill="#A1F142" opacity="1.000000" stroke="none" 
	d="
M78.835800,70.946930 
	C77.563400,71.502380 76.167580,71.790306 74.407074,72.082977 
	C75.599052,71.618286 77.155716,71.148849 78.835800,70.946930 
z"/>
<path fill="#A1F142" opacity="1.000000" stroke="none" 
	d="
M75.222839,67.220963 
	C75.471062,67.017014 75.897530,66.960281 76.648071,66.887558 
	C76.448463,67.037109 75.924774,67.202644 75.222839,67.220963 
z"/>
</svg>